<?xml version="1.0" encoding="UTF-8"?>
<svg version="1.1" xmlns="http://www.w3.org/2000/svg" width="604" height="432">
<path d="M0 0 C0.6992157 0.0608075 1.3984314 0.12161499 2.11883545 0.18426514 C55.49843147 4.84789159 110.77195748 16.03037408 159 40 C160.08667969 40.52464844 161.17335938 41.04929688 162.29296875 41.58984375 C167.36668174 44.06682413 172.23368051 46.65865344 176.96484375 49.73828125 C179.29379742 51.18214312 181.69359392 52.42401824 184.125 53.6875 C188.87509707 56.2462724 193.28771458 59.14023033 197.6875 62.25 C198.31221191 62.68658936 198.93692383 63.12317871 199.58056641 63.57299805 C201.09351847 64.66206085 202.55262006 65.82519234 204 67 C204 67.66 204 68.32 204 69 C204.87978516 69.40605469 204.87978516 69.40605469 205.77734375 69.8203125 C212.13179128 73.19297182 217.07306398 78.98302111 221.9375 84.1875 C222.42226807 84.69845215 222.90703613 85.2094043 223.40649414 85.73583984 C225.81352203 88.36020757 227.59469027 90.38670687 228 94 C228.66 94 229.32 94 230 94 C241.55899734 112.61486172 246.4486698 130.70773543 242.50195312 152.78613281 C239.40845876 165.60980356 232.7486453 176.56083422 224.875 187 C224.46733398 187.54052002 224.05966797 188.08104004 223.63964844 188.63793945 C221.06296837 191.93781605 218.33167277 194.48174567 215 197 C214.2575 197.7425 213.515 198.485 212.75 199.25 C200.01460739 211.98539261 184.81863453 221.50713492 169 230 C167.85402344 230.62003906 166.70804688 231.24007812 165.52734375 231.87890625 C125.49573116 252.98492148 79.64110342 264.85145995 35 271 C33.78715332 271.16983398 32.57430664 271.33966797 31.32470703 271.51464844 C-48.6293364 282.45749858 -135.82296542 280.99985018 -213.56591797 257.72509766 C-216.04960684 256.98522243 -218.54086358 256.27744059 -221.03515625 255.57421875 C-253.4480874 246.31517601 -284.43703952 232.45582063 -312 213 C-312.60328125 212.57605957 -313.2065625 212.15211914 -313.828125 211.71533203 C-326.39899597 202.77372341 -337.73170427 192.08218219 -346 179 C-346.52980469 178.25363281 -347.05960937 177.50726563 -347.60546875 176.73828125 C-351.34600707 171.44611222 -353.86358004 166.10821889 -356 160 C-356.34417969 159.06414062 -356.68835938 158.12828125 -357.04296875 157.1640625 C-358.11337249 153.62517667 -358.61562703 150.23136466 -359.0625 146.5625 C-359.21847656 145.30566406 -359.37445313 144.04882812 -359.53515625 142.75390625 C-359.68855469 141.51511719 -359.84195312 140.27632812 -360 139 C-360.21785156 137.82695312 -360.43570312 136.65390625 -360.66015625 135.4453125 C-362.05430124 121.31156671 -351.63140025 103.44710037 -344 92 C-343.34 92 -342.68 92 -342 92 C-341.78214844 91.45730469 -341.56429688 90.91460937 -341.33984375 90.35546875 C-339.54656451 87.20285247 -337.12901077 84.83304341 -334.5625 82.3125 C-334.02971436 81.78503174 -333.49692871 81.25756348 -332.94799805 80.71411133 C-327.90714758 75.7910273 -322.54584473 71.34353946 -317 67 C-316.31035156 66.43152344 -315.62070312 65.86304688 -314.91015625 65.27734375 C-294.08162787 48.36665756 -269.0744784 36.16182865 -244 27 C-243.15663086 26.68232666 -242.31326172 26.36465332 -241.44433594 26.03735352 C-201.58400852 11.18130176 -158.23126984 3.61214813 -116 0 C-114.80294434 -0.10441406 -113.60588867 -0.20882812 -112.37255859 -0.31640625 C-75.13633682 -3.41819776 -37.2135789 -3.3191353 0 0 Z M-187 67 C-188.80597656 67.71542969 -188.80597656 67.71542969 -190.6484375 68.4453125 C-218.75748796 79.88582754 -242.54154432 96.85196797 -255 125 C-258.62944292 137.40667612 -255.93171096 151.22414402 -250.24609375 162.46875 C-248.59808937 165.41382673 -246.99282655 168.27581592 -245 171 C-244.34 171 -243.68 171 -243 171 C-242.63068359 171.85078125 -242.63068359 171.85078125 -242.25390625 172.71875 C-236.39595235 183.3762113 -223.8542177 190.47692306 -214 197 C-213.03707031 197.64839844 -212.07414062 198.29679688 -211.08203125 198.96484375 C-192.9240639 210.36386313 -171.52233351 216.47905535 -151 222 C-149.7927124 222.32822754 -149.7927124 222.32822754 -148.56103516 222.66308594 C-70.1763891 243.6151234 26.45437989 237.39605312 98 198 C107.47856367 192.20167528 117.54363028 185.31672007 125 177 C125 176.34 125 175.68 125 175 C125.66 175 126.32 175 127 175 C135.05655794 165.61452529 140.76732389 154.32676105 142 142 C142.12375 140.7625 142.2475 139.525 142.375 138.25 C141.73599633 120.89040042 131.95761225 106.26550831 119.77929688 94.59521484 C109.18464899 85.09666527 96.70061549 78.2325601 84 72 C82.92621094 71.45859375 81.85242188 70.9171875 80.74609375 70.359375 C63.21880268 61.85315456 43.78186075 55.93462569 24.75 52 C22.90825195 51.61871948 22.90825195 51.61871948 21.02929688 51.22973633 C-4.30791225 46.19506362 -30.18440726 43.76663705 -56 43.6875 C-56.88296753 43.68421692 -57.76593506 43.68093384 -58.67565918 43.67755127 C-102.06553871 43.62598237 -146.75739179 50.45255283 -187 67 Z " fill="#1a1a2e" transform="translate(361,101)"/>
<path d="M0 0 C0.90041016 0.30631348 1.80082031 0.61262695 2.72851562 0.92822266 C25.14680242 8.72240914 52.65237903 23.30488138 63.9375 45.25 C68.96520232 55.99018131 70.2523187 68.65672083 66.375 80.0625 C63.16924791 87.44819033 58.44802132 94.0979769 53 100 C52.34 100 51.68 100 51 100 C51 100.66 51 101.32 51 102 C50.34 102 49.68 102 49 102 C48.67 102.99 48.34 103.98 48 105 C4.54819824 142.11791843 -62.80140385 149.24491995 -117.5 149.1875 C-118.9628241 149.18709213 -118.9628241 149.18709213 -120.4552002 149.18667603 C-133.8558263 149.16949574 -147.13108955 148.95808563 -160.44677734 147.30761719 C-163.17627073 146.97876256 -165.90811427 146.71008209 -168.64453125 146.4453125 C-199.79371395 143.24102651 -232.5549146 135.47367924 -260 120 C-261.06992187 119.41476562 -262.13984375 118.82953125 -263.2421875 118.2265625 C-270.20483437 114.31118093 -276.68628597 109.88898103 -283 105 C-283.72058594 104.44699219 -284.44117188 103.89398438 -285.18359375 103.32421875 C-295.72117862 94.71749739 -303.40136707 82.50817972 -304.9375 68.875 C-305.4706249 56.046682 -300.97112329 45.1343808 -292.4375 35.5625 C-290.97691678 34.02381072 -289.49753799 32.50274682 -288 31 C-287.22269531 30.18917969 -286.44539063 29.37835938 -285.64453125 28.54296875 C-269.20589938 12.73565805 -248.21860179 4.29565445 -227 -3 C-226.25314941 -3.25765137 -225.50629883 -3.51530273 -224.73681641 -3.78076172 C-202.33063666 -11.33213478 -178.47955913 -14.94641074 -155 -17 C-153.469198 -17.1403064 -153.469198 -17.1403064 -151.9074707 -17.28344727 C-100.70647553 -21.5042906 -48.65845005 -16.72331115 0 0 Z " fill="#1a1a2e" transform="translate(418,173)"/>
<path d="M0 0 C0.75 1.5625 0.75 1.5625 1 4 C-0.95471083 7.90942167 -3.09986457 11.70439156 -6 15 C-6.66 15 -7.32 15 -8 15 C-8.33 15.99 -8.66 16.98 -9 18 C-29.00016042 36.57820156 -56.00742679 47.07993265 -82 54 C-83.18021729 54.32411865 -83.18021729 54.32411865 -84.38427734 54.65478516 C-115.37553166 63.07569899 -147.56241878 65.46967301 -179.5 67.125 C-180.35490021 67.16974457 -181.20980042 67.21448914 -182.09060669 67.2605896 C-197.86264269 68.07305338 -213.40762456 68.2792325 -229.15136719 66.88305664 C-231.36579176 66.68830982 -233.58109065 66.50860452 -235.796875 66.33007812 C-245.99180754 65.47164123 -255.95839776 63.94517318 -266 62 C-267.34408936 61.74295288 -267.34408936 61.74295288 -268.71533203 61.48071289 C-297.3526033 55.81956323 -324.39027582 44.6655315 -349 29 C-349.58257568 28.63342285 -350.16515137 28.2668457 -350.76538086 27.88916016 C-357.85353042 23.42697104 -364.79288829 18.84992927 -371.515625 13.84765625 C-373.13369222 12.64428236 -374.76864655 11.46318717 -376.421875 10.30859375 C-377.51242187 9.53708984 -377.51242187 9.53708984 -378.625 8.75 C-379.25664062 8.31171875 -379.88828125 7.8734375 -380.5390625 7.421875 C-382.30860874 5.69964283 -382.61964103 4.4055135 -383 2 C-378.82321536 0.60773845 -375.67745495 1.98702761 -371.59375 3.17578125 C-369.82110718 3.67461908 -368.04839904 4.17322481 -366.27563477 4.67163086 C-365.33567657 4.93910126 -364.39571838 5.20657166 -363.42727661 5.48214722 C-317.31985804 18.56100119 -271.43345112 29.17454004 -223.37011719 30.65917969 C-221.90300293 30.70606934 -221.90300293 30.70606934 -220.40625 30.75390625 C-219.55353516 30.77783447 -218.70082031 30.8017627 -217.82226562 30.82641602 C-215 31 -215 31 -211.50488281 31.50488281 C-205.53133708 32.27972917 -199.52948031 32.16254321 -193.515625 32.16796875 C-192.22364197 32.17129715 -190.93165894 32.17462555 -189.6005249 32.17805481 C-186.87397425 32.1840143 -184.14745514 32.18589805 -181.42089844 32.18530273 C-177.96056883 32.18520141 -174.50044578 32.19883687 -171.04016495 32.21607494 C-167.69864938 32.22999987 -164.35716909 32.22928712 -161.015625 32.23046875 C-159.7902301 32.23765427 -158.56483521 32.24483978 -157.30230713 32.25224304 C-150.60323443 32.23469492 -144.2759297 31.75176053 -137.6914978 30.49539185 C-133.94054336 29.80499847 -130.17223693 29.42083039 -126.38208008 29.01342773 C-88.70829478 24.93008736 -51.55702117 14.61510534 -15.58251953 2.88574219 C-14.44282715 2.51868164 -13.30313477 2.15162109 -12.12890625 1.7734375 C-11.09967041 1.43489746 -10.07043457 1.09635742 -9.01000977 0.74755859 C-5.89102759 -0.02706412 -3.20026557 -0.13554628 0 0 Z " fill="#1a1a2e" transform="translate(495,361)"/>
<path d="M0 0 C1.34676612 0.54945898 2.69369517 1.09851875 4.04077148 1.6472168 C4.73057098 1.9297934 5.42037048 2.21237 6.131073 2.50350952 C9.40173895 3.83596737 12.68681145 5.13130746 15.97265625 6.42578125 C16.62189056 6.68205292 17.27112488 6.93832458 17.94003296 7.20236206 C19.96495742 8.00148752 21.99023301 8.79971651 24.015625 9.59765625 C24.72623077 9.87767487 25.43683655 10.15769348 26.16897583 10.44619751 C40.9081685 16.25165095 55.68630211 21.9532819 70.48681641 27.60058594 C84.65072195 33.00526144 98.7509764 38.52692431 112.75 44.34667969 C114.4615048 45.0450445 116.18103849 45.72391271 117.90625 46.38769531 C118.78796875 46.72768555 119.6696875 47.06767578 120.578125 47.41796875 C121.36960937 47.71719238 122.16109375 48.01641602 122.9765625 48.32470703 C125.33083189 49.4063286 127.19107735 50.72550025 129.203125 52.34765625 C128.873125 53.99765625 128.543125 55.64765625 128.203125 57.34765625 C123.55237848 58.80344221 120.84689261 57.76461975 116.41015625 55.953125 C115.75526215 55.6902771 115.10036804 55.4274292 114.42562866 55.15661621 C112.28407431 54.29436369 110.15012045 53.41471963 108.015625 52.53515625 C106.52638246 51.93255306 105.03654793 51.33141093 103.54614258 50.73168945 C101.27995219 49.81952635 99.01419966 48.90641043 96.75035095 47.9884491 C89.9961733 45.25027145 83.20174215 42.62868759 76.390625 40.03515625 C68.33692127 36.95267888 60.3085832 33.8174161 52.30932617 30.59643555 C42.78663521 26.76594708 33.23105916 23.0189966 23.67749023 19.26635742 C12.83473377 15.00313917 2.0212452 10.67490433 -8.796875 6.34765625 C-9.126875 24.82765625 -9.456875 43.30765625 -9.796875 62.34765625 C-12.106875 62.34765625 -14.416875 62.34765625 -16.796875 62.34765625 C-17.796875 61.34765625 -17.796875 61.34765625 -17.91712952 59.17735291 C-17.91490891 58.22026932 -17.91268829 57.26318573 -17.91040039 56.27709961 C-17.91032486 55.19605453 -17.91024933 54.11500946 -17.91017151 53.00120544 C-17.90501022 51.82518265 -17.89984894 50.64915985 -17.89453125 49.4375 C-17.89240883 47.64174278 -17.89240883 47.64174278 -17.89024353 45.80970764 C-17.88462479 41.96816559 -17.87206911 38.12668082 -17.859375 34.28515625 C-17.85436241 31.68815188 -17.84979909 29.0911466 -17.84570312 26.49414062 C-17.83464927 20.11195946 -17.81789292 13.72981195 -17.796875 7.34765625 C-25.32302972 9.57768197 -32.67895847 11.94736329 -39.921875 14.97265625 C-47.76152404 18.17610035 -55.65826638 21.18240409 -63.609375 24.09765625 C-73.37884531 27.68441778 -83.10119904 31.37923604 -92.796875 35.16015625 C-105.91571906 40.27592131 -119.0971359 45.21078243 -132.3125 50.0715332 C-133.02728516 50.33512634 -133.74207031 50.59871948 -134.47851562 50.87030029 C-136.41218117 51.58315687 -138.34668478 52.29373899 -140.28125 53.00415039 C-142.74272198 53.94480875 -145.10775455 54.92595571 -147.50390625 56.00561523 C-151.16765814 57.49876797 -153.87838069 57.58756406 -157.796875 57.34765625 C-158.126875 55.69765625 -158.456875 54.04765625 -158.796875 52.34765625 C-147.30291805 44.72107775 -134.47923642 40.54249557 -121.5378418 36.08740234 C-115.70036481 34.06113432 -109.95726013 31.86406222 -104.234375 29.53515625 C-81.81830589 20.44213648 -58.95617334 12.51993332 -36.11776733 4.56503296 C-32.64971139 3.35507651 -29.18765555 2.13189555 -25.73657227 0.87426758 C-25.09915604 0.64278519 -24.46173981 0.4113028 -23.80500793 0.17280579 C-22.09239423 -0.45105347 -20.38157353 -1.07982877 -18.67089844 -1.70898438 C-11.45209142 -4.07846028 -6.96169621 -2.86539516 0 0 Z " fill="#1a1a2e" transform="translate(315.796875,4.65234375)"/>
<path d="M0 0 C8.35963283 -1.00633003 14.51894009 1.43515691 22.03286743 4.9274292 C24.64833262 6.14281946 27.28161657 7.31709569 29.91453552 8.49407959 C31.27152712 9.10099352 32.62761519 9.70993156 33.98280334 10.32086182 C40.69314578 13.33910606 47.48736027 16.12577592 54.3125 18.875 C55.42020752 19.32319092 56.52791504 19.77138184 57.66918945 20.2331543 C59.78994063 21.09073016 61.91109789 21.94730267 64.03271484 22.80273438 C68.40147562 24.56547939 72.76500327 26.34070159 77.125 28.125 C77.82407471 28.40843262 78.52314941 28.69186523 79.2434082 28.98388672 C83.88524739 30.88524739 83.88524739 30.88524739 85 32 C85.39409469 36.45775117 85.4513906 40.94144638 85.58203125 45.4140625 C85.6034852 46.11376789 85.62493916 46.81347328 85.64704323 47.53438187 C86.17548039 65.32744599 85.99743627 83.11451685 85.75805664 100.91113281 C85.69605125 105.54416326 85.6498094 110.17721649 85.60722637 114.81046104 C85.57204895 118.41691604 85.52782552 122.02321645 85.48087502 125.62953568 C85.45987993 127.34157464 85.44196281 129.05365429 85.4272213 130.76575851 C85.4057866 133.12581278 85.37192842 135.48536407 85.3347168 137.84521484 C85.33098557 138.54516068 85.32725433 139.24510651 85.32341003 139.96626282 C85.22845187 144.77154813 85.22845187 144.77154813 83 147 C80.5 147.25 80.5 147.25 78 147 C76 145 76 145 75.75390434 143.06722832 C75.75666972 141.87534999 75.75666972 141.87534999 75.75949097 140.65939331 C75.75674164 139.74791534 75.75399231 138.83643738 75.75115967 137.89733887 C75.7619455 136.39330505 75.7619455 136.39330505 75.77294922 134.85888672 C75.77265717 133.80520905 75.77236511 132.75153137 75.77206421 131.66592407 C75.77346162 128.17042916 75.78904224 124.67514534 75.8046875 121.1796875 C75.80841617 118.76116045 75.81126383 116.34263189 75.81326294 113.92410278 C75.82091092 107.54868421 75.84056941 101.1733563 75.8626709 94.79797363 C75.88310427 88.29631782 75.89225928 81.7946474 75.90234375 75.29296875 C75.92381419 62.52860708 75.95758144 49.76430835 76 37 C67.84416272 33.59801769 59.68195432 30.21373661 51.5 26.875 C50.35233154 26.40634521 49.20466309 25.93769043 48.0222168 25.45483398 C41.79730769 22.92194575 35.5615197 20.42319449 29.30078125 17.98046875 C28.6709433 17.73451965 28.04110535 17.48857056 27.3921814 17.23516846 C24.36008436 16.05231984 21.32598484 14.87500019 18.2890625 13.70458984 C2.61581989 7.61581989 2.61581989 7.61581989 0 5 C-0.04063832 3.33382885 -0.042721 1.66611905 0 0 Z " fill="#1a1a2e" transform="translate(512,6)"/>
<path d="M0 0 C-0.1730957 2.83276367 -0.1730957 2.83276367 -1 6 C-3.24291992 7.5480957 -3.24291992 7.5480957 -6.23046875 8.67578125 C-7.88260376 9.32160156 -7.88260376 9.32160156 -9.56811523 9.98046875 C-10.76251221 10.42003906 -11.95690918 10.85960937 -13.1875 11.3125 C-15.05383351 12.03389248 -16.92016174 12.7553011 -18.78565979 13.47885132 C-20.67012171 14.20635439 -22.55825083 14.92357322 -24.44726562 15.63916016 C-29.31525585 17.50379577 -34.12503563 19.49752849 -38.9375 21.5 C-45.09704456 24.0367598 -51.27878834 26.51169016 -57.484375 28.93359375 C-58.12375504 29.18335968 -58.76313507 29.43312561 -59.42189026 29.69046021 C-62.57921053 30.92289508 -65.73833394 32.1501979 -68.90014648 33.37109375 C-70.61053101 34.03625 -70.61053101 34.03625 -72.35546875 34.71484375 C-73.37278076 35.10792725 -74.39009277 35.50101074 -75.43823242 35.90600586 C-78.16635112 36.97847662 -78.16635112 36.97847662 -81 39 C-81.4116335 42.05544766 -81.4116335 42.05544766 -81.27539062 45.70800781 C-81.26975601 46.39836372 -81.2641214 47.08871964 -81.25831604 47.79999542 C-81.24454888 49.30622787 -81.22401322 50.81240976 -81.19761658 52.31847382 C-81.14121365 55.56992242 -81.11809706 58.82134849 -81.09354401 62.07316971 C-81.08053752 63.78405625 -81.06593604 65.49493133 -81.04982758 67.20579147 C-80.96972891 76.30076697 -81.0827393 85.3904717 -81.21875 94.484375 C-81.24148638 96.09004561 -81.26411017 97.69571782 -81.28662109 99.3013916 C-81.34345929 103.30494471 -81.40316284 107.30844993 -81.46356201 111.31195068 C-81.525818 115.47747054 -81.58501426 119.64303402 -81.64453125 123.80859375 C-81.76016587 131.8724393 -81.87895691 139.93623382 -82 148 C-84.375 148.625 -84.375 148.625 -87 149 C-89.45214623 146.54785377 -89.26162264 145.86798992 -89.3053894 142.49649048 C-89.32233353 141.54872238 -89.33927765 140.60095428 -89.35673523 139.62446594 C-89.3651796 138.58130722 -89.37362396 137.5381485 -89.38232422 136.46337891 C-89.39879501 135.36735855 -89.41526581 134.2713382 -89.43223572 133.1421051 C-89.48369157 129.50364095 -89.52004471 125.8652232 -89.5546875 122.2265625 C-89.58354275 119.70551222 -89.61269075 117.18446527 -89.64212036 114.66342163 C-89.7011518 109.37233712 -89.75199171 104.0812477 -89.79785156 98.79003906 C-89.85112512 92.67427569 -89.92677411 86.55906668 -90.01293361 80.44368613 C-90.09470439 74.56200383 -90.15417071 68.68023291 -90.20520401 62.7981987 C-90.22983087 60.29503528 -90.26103264 57.7919278 -90.29885483 55.28892899 C-90.34968882 51.79095437 -90.37509043 48.29368264 -90.39404297 44.79541016 C-90.41463272 43.7562999 -90.43522247 42.71718964 -90.45643616 41.64659119 C-90.45662142 34.63097792 -90.45662142 34.63097792 -88.1131134 31.3926239 C-85.89538243 29.93105295 -83.90901974 28.96101343 -81.39453125 28.10546875 C-80.5017749 27.79327393 -79.60901855 27.4810791 -78.68920898 27.15942383 C-77.73989502 26.83868896 -76.79058105 26.5179541 -75.8125 26.1875 C-73.81928264 25.48991485 -71.82710282 24.78935852 -69.8359375 24.0859375 C-68.35432129 23.56338379 -68.35432129 23.56338379 -66.84277344 23.03027344 C-62.18918589 21.34372763 -57.62842213 19.45217224 -53.0715332 17.5222168 C-49.04462207 15.82196543 -44.99013041 14.2194053 -40.90625 12.66015625 C-36.18378098 10.85597894 -31.49337449 8.98931987 -26.81640625 7.0703125 C-25.62208984 6.585625 -24.42777344 6.1009375 -23.19726562 5.6015625 C-21.36305758 4.85644628 -19.52892383 4.11101103 -17.70141602 3.34960938 C-15.89119053 2.5970357 -14.07261489 1.86464741 -12.25390625 1.1328125 C-10.66557983 0.48143311 -10.66557983 0.48143311 -9.04516602 -0.18310547 C-5.62723756 -1.09999704 -3.40893783 -0.82743377 0 0 Z " fill="#1a1a2e" transform="translate(97,8)"/>
<path d="M0 0 C0.66 0.33 1.32 0.66 2 1 C1.51244075 1.39829671 1.0248815 1.79659342 0.52254772 2.20695972 C-1.43418041 4.51131596 -1.3706481 5.69362443 -1.36076355 8.68864441 C-1.36488754 9.65198196 -1.36901154 10.61531952 -1.3732605 11.60784912 C-1.35708176 13.19064667 -1.35708176 13.19064667 -1.34057617 14.80541992 C-1.34101425 15.91776505 -1.34145233 17.03011017 -1.34190369 18.17616272 C-1.33980991 21.86110856 -1.31645047 25.54560217 -1.29296875 29.23046875 C-1.28737491 31.7820867 -1.28310381 34.33370788 -1.28010559 36.8853302 C-1.26981274 42.92020209 -1.24615699 48.95487918 -1.21605712 54.98967296 C-1.18253223 61.86020548 -1.16603194 68.73074575 -1.15097082 75.6013397 C-1.11960783 89.73431669 -1.06683542 103.86714944 -1 118 C-1.66 117.67 -2.32 117.34 -3 117 C-3.22403059 102.3359969 -3.42496684 87.67182951 -3.59840012 73.0071373 C-3.67946675 66.19808025 -3.76809326 59.38927831 -3.87451172 52.58056641 C-3.97714664 46.01256959 -4.05872105 39.44453085 -4.12732697 32.87607574 C-4.15699766 30.36730923 -4.19378366 27.85861666 -4.2377243 25.35005951 C-4.29796343 21.84235068 -4.33313432 18.33523371 -4.36230469 14.82714844 C-4.38603653 13.78489609 -4.40976837 12.74264374 -4.43421936 11.66880798 C-4.4557607 4.60313786 -4.4557607 4.60313786 -1.97735596 1.32330322 C-0.99856476 0.66826813 -0.99856476 0.66826813 0 0 Z " fill="#1a1a2e" transform="translate(11,38)"/>
<path d="M0 0 C0.66 0.33 1.32 0.66 2 1 C-5.60601353 7.84541217 -13.36725765 13.37504696 -23 17 C-23.99 16.67 -24.98 16.34 -26 16 C-24.56720703 15.27296875 -24.56720703 15.27296875 -23.10546875 14.53125 C-14.8505366 10.27478389 -7.33671043 5.73514163 0 0 Z " fill="#1a1a2e" transform="translate(463,277)"/>
<path d="M0 0 C0.66 0.33 1.32 0.66 2 1 C1.27087654 1.62404472 1.27087654 1.62404472 0.52702332 2.26069641 C-2.04092678 5.18563199 -1.48259455 8.88755463 -1.51171875 12.60546875 C-1.52966995 13.44467361 -1.54762115 14.28387848 -1.56611633 15.14851379 C-1.62028563 17.82812479 -1.65413573 20.50755702 -1.6875 23.1875 C-1.72066729 25.00458221 -1.7551564 26.8216408 -1.79101562 28.63867188 C-1.87601572 33.09231905 -1.94279502 37.54591259 -2 42 C-2.33 42 -2.66 42 -3 42 C-3.24200419 36.66220951 -3.45695113 31.32426926 -3.64697266 25.984375 C-3.71539882 24.16832503 -3.79119026 22.35253692 -3.87451172 20.53710938 C-3.99306313 17.92612177 -4.08502112 15.31533544 -4.171875 12.703125 C-4.21439392 11.89256653 -4.25691284 11.08200806 -4.30072021 10.24688721 C-4.40183929 6.46298924 -4.37999846 4.48076542 -1.98925781 1.45605469 C-1.33280273 0.97555664 -0.67634766 0.49505859 0 0 Z " fill="#1a1a2e" transform="translate(11,38)"/>
<path d="M0 0 C0 3 0 3 -1.9375 5.1875 C-2.94627436 6.1379637 -3.96955745 7.07307223 -5 8 C-5.77085937 8.69351562 -6.54171875 9.38703125 -7.3359375 10.1015625 C-9.54904355 12.07730071 -11.77064383 14.042635 -14 16 C-14.99 15.67 -15.98 15.34 -17 15 C-16.10796875 14.25234375 -15.2159375 13.5046875 -14.296875 12.734375 C-13.11450188 11.73968015 -11.93221475 10.74488308 -10.75 9.75 C-10.16347656 9.25886719 -9.57695313 8.76773437 -8.97265625 8.26171875 C-5.84378521 5.62502968 -2.84047379 2.9529678 0 0 Z " fill="#1a1a2e" transform="translate(576,295)"/>
<path d="M0 0 C0.66 0.33 1.32 0.66 2 1 C1.51917969 1.37769531 1.03835937 1.75539062 0.54296875 2.14453125 C-1.53662958 4.64531405 -1.49841577 6.47306804 -1.6875 9.6875 C-1.78611328 11.17830078 -1.78611328 11.17830078 -1.88671875 12.69921875 C-1.94279297 13.83810547 -1.94279297 13.83810547 -2 15 C-2.33 15 -2.66 15 -3 15 C-4.61050328 4.84682713 -4.61050328 4.84682713 -2.0625 1.3125 C-1.381875 0.879375 -0.70125 0.44625 0 0 Z " fill="#1a1a2e" transform="translate(11,38)"/>
<path d="M0 0 C0.33 0.99 0.66 1.98 1 3 C0.01 4.485 0.01 4.485 -1 6 C-1.66 6 -2.32 6 -3 6 C-3.33 6.99 -3.66 7.98 -4 9 C-6.0625 9.6875 -6.0625 9.6875 -8 10 C-7.59007812 9.52949219 -7.18015625 9.05898438 -6.7578125 8.57421875 C-6.21898437 7.95160156 -5.68015625 7.32898438 -5.125 6.6875 C-4.59132813 6.07261719 -4.05765625 5.45773437 -3.5078125 4.82421875 C-1.8359553 2.86501788 -1.8359553 2.86501788 0 0 Z " fill="#1a1a2e" transform="translate(490,370)"/>
<path d="M0 0 C0.66 0.33 1.32 0.66 2 1 C0.74057614 2.19959375 -0.53295286 3.38439443 -1.8125 4.5625 C-2.87404297 5.55443359 -2.87404297 5.55443359 -3.95703125 6.56640625 C-4.63121094 7.03949219 -5.30539063 7.51257813 -6 8 C-6.99 7.67 -7.98 7.34 -9 7 C-6.03 4.69 -3.06 2.38 0 0 Z " fill="#1a1a2e" transform="translate(134,188)"/>
<path d="M0 0 C0.64453125 1.765625 0.64453125 1.765625 1 4 C0.07421875 5.921875 0.07421875 5.921875 -1.3125 7.75 C-1.98732422 8.67039062 -1.98732422 8.67039062 -2.67578125 9.609375 C-3.11277344 10.06828125 -3.54976563 10.5271875 -4 11 C-4.66 11 -5.32 11 -6 11 C-4.18690997 7.22272911 -2.0926741 3.62730178 0 0 Z " fill="#1a1a2e" transform="translate(480,256)"/>
<path d="M0 0 C1 3 1 3 0.109375 4.7890625 C-0.33921875 5.39492187 -0.7878125 6.00078125 -1.25 6.625 C-1.68828125 7.23601562 -2.1265625 7.84703125 -2.578125 8.4765625 C-4 10 -4 10 -7 11 C-5.5140084 6.40693504 -3.14985318 3.56430755 0 0 Z " fill="#1a1a2e" transform="translate(118,202)"/>
</svg>
